<?xml version="1.0" encoding="UTF-8" standalone="no"?>
<!DOCTYPE svg PUBLIC "-//W3C//DTD SVG 1.1//EN" "http://www.w3.org/Graphics/SVG/1.1/DTD/svg11.dtd">
<svg width="100%" height="100%" viewBox="0 0 2957 1809" version="1.1" xmlns="http://www.w3.org/2000/svg" xmlns:xlink="http://www.w3.org/1999/xlink" xml:space="preserve" xmlns:serif="http://www.serif.com/" style="fill-rule:evenodd;clip-rule:evenodd;stroke-linejoin:round;stroke-miterlimit:2;">
    <g id="Turtle" transform="matrix(1,0,0,1,-568.996,-1185.31)">
        <path d="M2841.59,2433.35C2841.59,2568.07 2381.96,2773.54 1815,2773.54C1248,2773.54 788.416,2568.07 788.416,2433.35C788.416,2395.21 825.218,2359.14 890.807,2326.99C938.296,1959.8 1392.33,1673.22 1815,1673.22C2237.68,1673.22 2691.66,1959.8 2739.15,2326.99C2804.79,2359.14 2841.59,2395.21 2841.59,2433.35Z" style="fill:rgb(236,244,162);fill-rule:nonzero;"/>
        <path d="M1815,1675.72C1368.89,1675.72 938.178,1980.2 893.288,2327.31L893.115,2328.65L891.909,2329.24C824.895,2362.09 790.915,2397.11 790.915,2433.34C790.915,2566.7 1249.7,2771.04 1815,2771.04C2380.3,2771.04 2839.09,2566.7 2839.09,2433.34C2839.09,2397.1 2805.1,2362.08 2738.05,2329.24L2736.85,2328.65L2736.67,2327.31C2691.78,1980.2 2261.1,1675.72 1815,1675.72ZM1815,2776.04C1556.62,2776.04 1298.51,2733.52 1088.22,2656.31C901.753,2587.85 785.915,2502.41 785.915,2433.34C785.915,2395.27 820.43,2358.94 888.503,2325.34C911.445,2151.63 1025.86,1986.53 1210.8,1860.34C1387.42,1739.83 1607.65,1670.72 1815,1670.72C2022.36,1670.72 2242.57,1739.83 2419.18,1860.34C2604.11,1986.53 2718.52,2151.62 2741.46,2325.34C2809.56,2358.93 2844.09,2395.26 2844.09,2433.34C2844.09,2502.41 2728.25,2587.85 2541.77,2656.31C2331.48,2733.52 2073.37,2776.04 1815,2776.04Z" style="fill:rgb(0,0,114);fill-rule:nonzero;"/>
        <path d="M1815,2757.54C1714.65,2757.54 1614.35,2751.08 1516.95,2738.63C1515.84,2727.03 1513.86,2715.38 1511.17,2703.76C1607.19,2716.27 1709.25,2723.42 1815.02,2723.42C2060.48,2723.42 2285.79,2684.92 2462.42,2630.3C2463.18,2630.77 2463.93,2631.24 2464.66,2631.72L2464.68,2631.71C2473.27,2637.31 2480.24,2643.97 2482.64,2651.57C2482.53,2653.6 2482.2,2655.61 2481.67,2657.57C2283.91,2722.22 2049.62,2757.54 1815,2757.54ZM1018.43,2608.31C871.244,2543.32 804.416,2475.9 804.416,2433.34C804.416,2432.16 804.466,2430.97 804.565,2429.79C839.076,2482.24 927.24,2539.85 1053.01,2590.04C1047.48,2597.49 1035.14,2603.46 1018.43,2608.31Z" style="fill:rgb(154,159,145);fill-rule:nonzero;"/>
        <path d="M1815,1689.22C1375.21,1689.22 950.757,1988.2 906.677,2329.04L905.573,2337.57L897.852,2341.36C836.726,2371.32 804.416,2403.13 804.416,2433.34C804.416,2482.65 894.143,2565.35 1094.6,2638.95C1302.89,2715.42 1558.74,2757.54 1815,2757.54C2071.25,2757.54 2327.09,2715.42 2535.39,2638.95C2735.86,2565.34 2825.59,2482.65 2825.59,2433.34C2825.59,2403.13 2793.27,2371.32 2732.11,2341.36L2724.39,2337.58L2723.28,2329.04C2679.2,1988.2 2254.77,1689.22 1815,1689.22ZM1815,2789.54C1263.3,2789.54 772.414,2590.35 772.414,2433.34C772.414,2391.01 807.292,2351.7 876.108,2316.46C901.689,2141.5 1017.54,1975.86 1203.19,1849.19C1382,1727.19 1605,1657.22 1815,1657.22C2025,1657.22 2247.99,1727.19 2426.79,1849.19C2612.43,1975.86 2728.27,2141.5 2753.85,2316.46C2822.7,2351.69 2857.59,2391 2857.59,2433.34C2857.59,2590.35 2366.71,2789.54 1815,2789.54Z" style="fill:rgb(0,0,114);fill-rule:nonzero;"/>
        <path d="M1371.14,2482.42C1371.14,2482.42 1628.33,2775.73 1421.51,2891.87C1241.11,2993.18 836.922,2949.61 656.051,2840.03C518.661,2756.8 669.406,2660.9 890.344,2642.86C1120.65,2624.05 1081.14,2592.35 1046.03,2482.42L1371.14,2482.42Z" style="fill:rgb(201,228,71);fill-rule:nonzero;"/>
        <path d="M1133.8,2951.6C958.257,2951.6 764.884,2908.89 654.756,2842.17C603.081,2810.86 597.71,2781.06 602.307,2761.58C616.14,2702.92 734.502,2653.08 890.141,2640.37C1001.34,2631.28 1050.37,2618.96 1065.02,2596.4C1076.67,2578.48 1067.48,2552.26 1054.77,2515.96C1051.32,2506.13 1047.42,2494.99 1043.65,2483.18L1048.41,2481.66C1052.16,2493.4 1055.88,2504.03 1059.48,2514.31C1072.67,2551.95 1082.2,2579.14 1069.22,2599.12C1053.4,2623.48 1004.97,2636.01 890.547,2645.35C739.48,2657.69 620.302,2707.05 607.172,2762.73C601.128,2788.35 618.479,2814.35 657.349,2837.9C836.963,2946.71 1239.19,2991.38 1420.29,2889.69C1463.86,2865.22 1489.73,2830.77 1497.17,2787.29C1519.46,2657.2 1370.76,2485.79 1369.26,2484.07L1373.02,2480.77C1374.54,2482.51 1524.79,2655.68 1502.1,2788.13C1494.39,2833.17 1467.69,2868.8 1422.73,2894.05C1351.49,2934.05 1246.3,2951.6 1133.8,2951.6Z" style="fill:rgb(0,0,114);fill-rule:nonzero;"/>
        <path d="M1421.51,2891.88C1241.12,2993.17 836.927,2949.61 656.063,2840.02C518.643,2756.81 669.409,2660.92 890.352,2642.87C989.492,2634.77 1038.65,2624.28 1059.67,2606.16C1083.23,2585.89 1071.37,2555.98 1055.01,2509.09C1065.03,2499.7 1077.95,2490.78 1093.33,2482.44L1371.14,2482.44C1371.14,2482.44 1482.96,2609.96 1499.83,2730.12C1508.56,2792.19 1491.96,2852.31 1421.51,2891.88Z" style="fill:rgb(181,233,36);fill-rule:nonzero;"/>
        <path d="M1134.39,2933.02C1104.1,2933.02 1072.61,2931.73 1040.26,2929.09C890.954,2916.91 750.425,2878.5 664.343,2826.35C647.452,2816.12 628.846,2801.75 622.118,2785.28C625.597,2778.59 630.52,2772.03 636.768,2765.66C637.208,2765.93 637.651,2766.2 638.097,2766.48C748.168,2833.17 941.003,2875.42 1115.72,2875.42C1228.09,2875.42 1332.94,2857.96 1403.55,2818.3C1403.97,2818.06 1404.39,2817.82 1404.81,2817.58C1448.77,2792.54 1435.53,2725.97 1385.48,2718.59C1268.3,2701.29 1157.89,2667.79 1084.17,2623.4C1085.98,2616.37 1085.82,2608.49 1084.29,2599.62C1086.1,2595.59 1087.32,2591.42 1088.05,2587.1C1196.92,2626.43 1327.92,2659.41 1471.28,2680.57C1483.38,2715.79 1489.54,2751.92 1483.87,2785.01C1477.05,2824.83 1454.09,2855.22 1413.67,2877.92C1349.67,2913.86 1250.78,2933.02 1134.39,2933.02Z" style="fill:rgb(118,152,63);fill-rule:nonzero;"/>
        <path d="M636.768,2765.66C632.052,2762.76 627.688,2759.84 623.666,2756.92C644.255,2716.84 740.034,2671.19 891.645,2658.8C998.257,2650.1 1049.27,2638.41 1072.63,2615.99C1075.96,2618.28 1079.49,2620.56 1083.23,2622.84C1083.54,2623.02 1083.86,2623.21 1084.17,2623.4C1076.38,2653.59 1032.09,2668.2 902.916,2678.76C779.909,2688.82 678.644,2722.97 636.768,2765.66Z" style="fill:rgb(225,246,167);fill-rule:nonzero;"/>
        <path d="M622.118,2785.28C619.576,2779.06 618.729,2772.54 620.312,2765.83C621.002,2762.9 622.122,2759.93 623.666,2756.92C627.688,2759.84 632.052,2762.76 636.768,2765.66C630.52,2772.03 625.597,2778.59 622.118,2785.28ZM1084.17,2623.4C1083.86,2623.21 1083.54,2623.02 1083.23,2622.84C1079.49,2620.56 1075.96,2618.28 1072.63,2615.99C1075.73,2613.02 1078.35,2609.85 1080.54,2606.48C1081.99,2604.24 1083.24,2601.95 1084.29,2599.62C1085.82,2608.49 1085.98,2616.37 1084.17,2623.4Z" style="fill:rgb(200,214,178);fill-rule:nonzero;"/>
        <path d="M1134.1,2964.65C955.674,2964.66 759.479,2921.41 647.761,2853.72C589.143,2818.2 583.542,2782.32 589.167,2758.48C606.955,2683.06 752.595,2638.05 889.043,2626.91C962.183,2620.94 1038.94,2611.77 1053.71,2589.04C1061.73,2576.68 1053.47,2553.09 1042.02,2520.42C1038.55,2510.51 1034.62,2499.28 1030.79,2487.29C1028.1,2478.87 1032.74,2469.87 1041.16,2467.18C1049.57,2464.5 1058.58,2469.14 1061.27,2477.55C1064.96,2489.12 1068.65,2499.65 1072.22,2509.84C1086.14,2549.56 1097.13,2580.94 1080.54,2606.48C1061.85,2635.25 1012.42,2648.94 891.645,2658.8C728.664,2672.11 630.205,2723.88 620.312,2765.83C614.538,2790.3 641.069,2812.25 664.343,2826.35C750.425,2878.5 890.954,2916.91 1040.26,2929.09C1196.92,2941.86 1333.01,2923.22 1413.67,2877.92C1454.09,2855.22 1477.05,2824.83 1483.87,2785.01C1505.08,2661.15 1360.57,2494.64 1359.11,2492.97C1353.28,2486.33 1353.95,2476.22 1360.59,2470.39C1367.24,2464.57 1377.35,2465.23 1383.17,2471.87C1389.55,2479.15 1539.17,2651.68 1515.41,2790.41C1506.97,2839.66 1478.02,2878.49 1429.34,2905.82C1356.52,2946.71 1248.98,2964.65 1134.1,2964.65Z" style="fill:rgb(0,0,114);fill-rule:nonzero;"/>
        <path d="M1371.14,1939.97C1371.14,1939.97 1628.33,2233.28 1421.51,2349.42C1241.11,2450.73 836.922,2407.16 656.051,2297.59C518.661,2214.35 669.406,2118.45 890.344,2100.41C1120.65,2081.6 1081.14,2049.9 1046.03,1939.97L1371.14,1939.97Z" style="fill:rgb(181,233,36);fill-rule:nonzero;"/>
        <path d="M774.148,2333.54C732.082,2319.09 694.801,2302.35 664.343,2283.9C641.069,2269.8 614.538,2247.85 620.312,2223.38C621.694,2217.52 624.8,2211.47 629.571,2205.36C636.788,2211.82 645.596,2218.24 656.063,2224.59C695.34,2248.39 745.183,2269.08 800.945,2285.85C786.625,2301.21 777.674,2317.12 774.148,2333.54Z" style="fill:rgb(118,152,63);fill-rule:nonzero;"/>
        <path d="M1134.11,2422.21C955.68,2422.21 759.482,2378.95 647.761,2311.27C589.143,2275.75 583.542,2239.88 589.167,2216.03C606.953,2140.61 752.595,2095.61 889.04,2084.46C962.183,2078.49 1038.94,2069.32 1053.71,2046.59C1061.73,2034.23 1053.47,2010.64 1042.02,1977.97C1038.55,1968.06 1034.62,1956.83 1030.79,1944.84C1028.1,1936.43 1032.74,1927.42 1041.16,1924.73C1049.57,1922.06 1058.58,1926.69 1061.27,1935.11C1064.96,1946.67 1068.65,1957.2 1072.22,1967.39C1086.14,2007.11 1097.13,2038.49 1080.54,2064.03C1061.85,2092.8 1012.42,2106.49 891.645,2116.35C728.662,2129.66 630.205,2181.43 620.312,2223.38C614.538,2247.85 641.069,2269.8 664.343,2283.9C750.427,2336.05 890.954,2374.46 1040.26,2386.64C1196.92,2399.43 1333.01,2380.77 1413.67,2335.47C1454.09,2312.78 1477.05,2282.39 1483.87,2242.56C1505.08,2118.71 1360.57,1952.19 1359.11,1950.52C1353.28,1943.88 1353.95,1933.77 1360.59,1927.94C1367.24,1922.12 1377.35,1922.78 1383.17,1929.43C1389.55,1936.7 1539.17,2109.24 1515.41,2247.96C1506.97,2297.21 1478.02,2336.04 1429.34,2363.37C1356.52,2404.27 1248.99,2422.2 1134.11,2422.21Z" style="fill:rgb(0,0,114);fill-rule:nonzero;"/>
        <path d="M2743.96,2317.62C2743.96,2317.62 2622.12,2593.75 1814.98,2593.75C1007.85,2593.75 886.007,2317.62 886.007,2317.62C886.007,2292.54 887.612,2267.76 890.821,2243.34C938.298,1876.13 1392.32,1589.55 1815.02,1589.55C2237.69,1589.55 2691.67,1876.13 2739.15,2243.34C2742.32,2267.76 2743.96,2292.54 2743.96,2317.62Z" style="fill:rgb(82,165,28);fill-rule:nonzero;"/>
        <path d="M888.506,2317.06C891.465,2323.14 925.728,2388.87 1049.65,2453.82C1169.25,2516.52 1399.12,2591.25 1814.98,2591.25C2230.85,2591.25 2460.71,2516.52 2580.32,2453.82C2704.24,2388.87 2738.5,2323.14 2741.46,2317.06C2741.44,2292.66 2739.82,2267.97 2736.67,2243.66C2691.79,1896.54 2261.11,1592.05 1815.02,1592.05C1368.89,1592.05 938.18,1896.54 893.301,2243.66C890.141,2267.7 888.53,2292.38 888.506,2317.06ZM1814.98,2596.26C1397.53,2596.26 1166.75,2521.02 1046.66,2457.9C916.032,2389.25 884.975,2321.48 883.718,2318.63L883.506,2317.62C883.506,2292.54 885.131,2267.44 888.342,2243.01C910.866,2068.8 1025.39,1903.19 1210.8,1776.68C1387.42,1656.17 1607.65,1587.05 1815.02,1587.05C2022.37,1587.05 2242.58,1656.17 2419.19,1776.68C2604.59,1903.19 2719.1,2068.8 2741.63,2243.02C2744.83,2267.72 2746.46,2292.82 2746.46,2317.62L2746.25,2318.63C2744.99,2321.48 2713.93,2389.25 2583.31,2457.9C2463.22,2521.02 2232.43,2596.26 1814.98,2596.26Z" style="fill:rgb(0,0,114);fill-rule:nonzero;"/>
        <path d="M921.149,2185.86L918.303,2185.86C1000.65,1870.49 1401.04,1605.55 1815.02,1605.55C1885.86,1605.55 1956.32,1613.31 2024.83,1627.75L1997.49,1668.41C1936.88,1657.23 1875.63,1651.33 1815.02,1651.33C1439.33,1651.33 1038.91,1877.71 921.149,2185.86ZM2256.03,1749.85C2187.05,1718.54 2114.15,1693.9 2039.85,1677.1L2066.54,1637.42C2134.69,1654.67 2200.55,1678.47 2262.61,1707.73C2259.69,1721.66 2257.49,1735.71 2256.03,1749.85Z" style="fill:rgb(151,201,119);fill-rule:nonzero;"/>
        <path d="M2841.57,2349.68C2841.57,2484.4 2381.96,2689.88 1815.02,2689.88C1248.01,2689.88 788.432,2484.4 788.432,2349.68C788.432,2311.56 825.223,2275.47 890.821,2243.34C887.612,2267.76 886.007,2292.54 886.007,2317.62C886.007,2317.62 1007.85,2593.75 1814.98,2593.75C2622.12,2593.75 2743.96,2317.62 2743.96,2317.62C2743.96,2292.54 2742.32,2267.76 2739.15,2243.34C2804.78,2275.47 2841.57,2311.56 2841.57,2349.68Z" style="fill:rgb(203,219,112);fill-rule:nonzero;"/>
        <path d="M887.751,2247.65C824.385,2279.48 790.933,2314.7 790.933,2349.68C790.933,2483.04 1249.72,2687.38 1815.02,2687.38C2380.3,2687.38 2839.07,2483.04 2839.07,2349.68C2839.07,2314.69 2805.61,2279.47 2742.21,2247.65C2745.03,2270.85 2746.46,2294.37 2746.46,2317.62L2746.25,2318.63C2744.99,2321.48 2713.93,2389.25 2583.31,2457.9C2463.22,2521.02 2232.43,2596.26 1814.98,2596.26C1397.53,2596.26 1166.75,2521.02 1046.66,2457.9C916.032,2389.25 884.975,2321.48 883.718,2318.63L883.506,2317.62C883.506,2294.13 884.933,2270.61 887.751,2247.65ZM1815.02,2692.38C1556.63,2692.38 1298.52,2649.86 1088.23,2572.65C901.767,2504.18 785.933,2418.75 785.933,2349.68C785.933,2311.36 820.851,2274.83 889.719,2241.09L893.906,2239.04L893.298,2243.67C890.141,2267.7 888.53,2292.38 888.506,2317.06C891.465,2323.14 925.728,2388.87 1049.65,2453.82C1169.25,2516.52 1399.12,2591.25 1814.98,2591.25C2230.85,2591.25 2460.71,2516.52 2580.32,2453.82C2704.24,2388.87 2738.5,2323.14 2741.46,2317.06C2741.44,2292.66 2739.82,2267.97 2736.66,2243.66L2736.07,2239.05L2740.24,2241.09C2809.14,2274.82 2844.07,2311.36 2844.07,2349.68C2844.07,2418.74 2728.23,2504.18 2541.76,2572.65C2331.47,2649.86 2073.38,2692.38 1815.02,2692.38Z" style="fill:rgb(0,0,114);fill-rule:nonzero;"/>
        <path d="M1815.02,2673.88C1558.75,2673.88 1302.91,2631.76 1094.61,2555.28C894.157,2481.68 804.434,2398.98 804.434,2349.68C804.434,2349.57 804.434,2349.46 804.435,2349.36C890.122,2480.19 1309.95,2643.23 1815.02,2643.23C2089.09,2643.23 2338.05,2595.21 2522.16,2530.39C2502.19,2548.28 2479.08,2566.03 2452.32,2583.2C2260.94,2641.95 2038.13,2673.88 1815.02,2673.88Z" style="fill:rgb(132,143,113);fill-rule:nonzero;"/>
        <path d="M871.792,2271.6C827.592,2297.36 804.434,2324.09 804.434,2349.68C804.434,2398.98 894.157,2481.68 1094.61,2555.28C1302.91,2631.76 1558.75,2673.88 1815.02,2673.88C2071.26,2673.88 2327.09,2631.76 2535.39,2555.28C2735.84,2481.67 2825.57,2398.98 2825.57,2349.68C2825.57,2324.08 2802.39,2297.35 2758.16,2271.58C2759.36,2286.93 2759.96,2302.33 2759.96,2317.62L2759.96,2321L2758.6,2324.08C2757.26,2327.11 2724.34,2399.04 2589.59,2469.85C2412.95,2562.69 2152.34,2609.76 1814.98,2609.76C1477.63,2609.76 1217.01,2562.69 1040.38,2469.85C905.63,2399.04 872.702,2327.11 871.367,2324.08L870.005,2321L870.005,2317.62C870.005,2302.24 870.603,2286.85 871.792,2271.6ZM1815.02,2705.88C1263.32,2705.88 772.432,2506.69 772.432,2349.68C772.432,2305.78 809.894,2265.17 883.782,2228.97L910.568,2215.85L906.685,2245.42C903.745,2267.8 902.175,2290.78 902.018,2313.77C909.23,2326.7 946.726,2385.46 1059.52,2443.75C1177.83,2504.88 1404.93,2577.75 1814.98,2577.75C2225.04,2577.75 2452.14,2504.88 2570.44,2443.75C2683.09,2385.54 2720.63,2326.86 2727.95,2313.76C2727.78,2291.02 2726.22,2268.04 2723.28,2245.4L2719.45,2215.88L2746.18,2228.97C2820.09,2265.16 2857.57,2305.77 2857.57,2349.68C2857.57,2506.69 2366.71,2705.88 1815.02,2705.88Z" style="fill:rgb(0,0,114);fill-rule:nonzero;"/>
        <g>
            <clipPath id="_clip1">
                <path d="M2743.96,2317.62C2743.96,2317.62 2622.12,2593.75 1814.98,2593.75C1007.85,2593.75 886.007,2317.62 886.007,2317.62C886.007,2292.54 887.612,2267.76 890.821,2243.34C938.298,1876.13 1392.32,1589.55 1815.02,1589.55C2237.69,1589.55 2691.67,1876.13 2739.15,2243.34C2742.32,2267.76 2743.96,2292.54 2743.96,2317.62Z"/>
            </clipPath>
            <g clip-path="url(#_clip1)">
                <path d="M1215.93,2413.77L1501.21,2413.77L1641.05,2205.86L1501.21,1997.95L1215.93,1997.95L1076.1,2205.86L1215.93,2413.77ZM1522.52,2453.77L1194.63,2453.77L1027.89,2205.86L1194.63,1957.95L1522.52,1957.95L1689.26,2205.86L1522.52,2453.77Z" style="fill:rgb(201,214,76);fill-rule:nonzero;"/>
                <path d="M1215.93,1957.95L1501.21,1957.95L1641.05,1750.04L1501.21,1542.13L1215.93,1542.13L1076.1,1750.04L1215.93,1957.95ZM1522.51,1997.95L1194.63,1997.95L1027.89,1750.04L1194.63,1502.13L1522.51,1502.13L1689.25,1750.04L1522.51,1997.95Z" style="fill:rgb(201,214,76);fill-rule:nonzero;"/>
                <path d="M1215.93,2869.6L1501.21,2869.6L1641.05,2661.69L1501.21,2453.77L1215.93,2453.77L1076.1,2661.69L1215.93,2869.6ZM1522.52,2909.6L1194.63,2909.6L1027.89,2661.69L1194.63,2413.77L1522.52,2413.77L1689.26,2661.69L1522.52,2909.6Z" style="fill:rgb(201,214,76);fill-rule:nonzero;"/>
                <path d="M2130.63,2413.77L2415.91,2413.77L2555.74,2205.86L2415.91,1997.95L2130.63,1997.95L1990.79,2205.86L2130.63,2413.77ZM2437.21,2453.77L2109.33,2453.77L1942.58,2205.86L2109.33,1957.95L2437.21,1957.95L2603.95,2205.86L2437.21,2453.77Z" style="fill:rgb(201,214,76);fill-rule:nonzero;"/>
                <path d="M2130.63,2869.6L2415.91,2869.6L2555.74,2661.69L2415.91,2453.77L2130.63,2453.77L1990.79,2661.69L2130.63,2869.6ZM2437.21,2909.6L2109.33,2909.6L1942.58,2661.69L2109.33,2413.77L2437.21,2413.77L2603.95,2661.69L2437.21,2909.6Z" style="fill:rgb(201,214,76);fill-rule:nonzero;"/>
                <path d="M2130.63,1957.95L2415.91,1957.95L2555.74,1750.04L2415.91,1542.13L2130.63,1542.13L1990.79,1750.04L2130.63,1957.95ZM2437.21,1997.95L2109.33,1997.95L1942.58,1750.04L2109.33,1502.13L2437.21,1502.13L2603.95,1750.04L2437.21,1997.95Z" style="fill:rgb(201,214,76);fill-rule:nonzero;"/>
                <path d="M1672.37,2185.86L1957.64,2185.86L2097.48,1977.95L1957.64,1770.04L1672.37,1770.04L1532.53,1977.95L1672.37,2185.86ZM1978.95,2225.86L1651.06,2225.86L1484.32,1977.95L1651.06,1730.04L1978.95,1730.04L2145.69,1977.95L1978.95,2225.86Z" style="fill:rgb(201,214,76);fill-rule:nonzero;"/>
                <path d="M757.041,2185.86L1042.32,2185.86L1182.16,1977.95L1042.32,1770.04L757.041,1770.04L617.204,1977.95L757.041,2185.86ZM1063.62,2225.86L735.737,2225.86L568.996,1977.95L735.737,1730.04L1063.62,1730.04L1230.36,1977.95L1063.62,2225.86Z" style="fill:rgb(201,214,76);fill-rule:nonzero;"/>
                <path d="M1672.37,2641.69L1957.64,2641.69L2097.48,2433.77L1957.64,2225.86L1672.37,2225.86L1532.53,2433.77L1672.37,2641.69ZM1978.95,2681.69L1651.06,2681.69L1484.32,2433.77L1651.06,2185.86L1978.95,2185.86L2145.69,2433.77L1978.95,2681.69Z" style="fill:rgb(201,214,76);fill-rule:nonzero;"/>
                <path d="M1672.37,1730.04L1957.64,1730.04L2097.48,1522.13L1957.64,1314.22L1672.37,1314.22L1532.53,1522.13L1672.37,1730.04ZM1978.95,1770.04L1651.06,1770.04L1484.32,1522.13L1651.06,1274.22L1978.95,1274.22L2145.69,1522.13L1978.95,1770.04Z" style="fill:rgb(201,214,76);fill-rule:nonzero;"/>
                <path d="M757.041,2641.69L1042.32,2641.69L1182.16,2433.77L1042.32,2225.86L757.041,2225.86L617.204,2433.77L757.041,2641.69ZM1063.62,2681.69L735.737,2681.69L568.996,2433.77L735.737,2185.86L1063.62,2185.86L1230.36,2433.77L1063.62,2681.69Z" style="fill:rgb(201,214,76);fill-rule:nonzero;"/>
                <path d="M2587.69,2185.86L2872.97,2185.86L3012.8,1977.95L2872.97,1770.04L2587.69,1770.04L2447.85,1977.95L2587.69,2185.86ZM2894.27,2225.86L2566.38,2225.86L2399.64,1977.95L2566.38,1730.04L2894.27,1730.04L3061.01,1977.95L2894.27,2225.86Z" style="fill:rgb(201,214,76);fill-rule:nonzero;"/>
                <path d="M2587.69,2641.69L2872.97,2641.69L3012.8,2433.77L2872.97,2225.86L2587.69,2225.86L2447.85,2433.77L2587.69,2641.69ZM2894.27,2681.69L2566.38,2681.69L2399.64,2433.77L2566.38,2185.86L2894.27,2185.86L3061.01,2433.77L2894.27,2681.69Z" style="fill:rgb(201,214,76);fill-rule:nonzero;"/>
            </g>
        </g>
        <path d="M2743.96,2317.62L2744.01,2317.62L2743.96,2317.62ZM902.018,2313.77C909.23,2326.7 946.726,2385.46 1059.52,2443.75C1177.83,2504.88 1404.93,2577.75 1814.98,2577.75C2225.04,2577.75 2452.14,2504.88 2570.44,2443.75C2683.09,2385.54 2720.63,2326.86 2727.95,2313.76C2727.78,2291.02 2726.22,2268.04 2723.28,2245.4C2679.21,1904.54 2254.79,1605.55 1815.02,1605.55C1375.21,1605.55 950.758,1904.54 906.687,2245.39C903.742,2267.8 902.175,2290.78 902.018,2313.77ZM1814.98,2609.76C1477.63,2609.76 1217.01,2562.69 1040.38,2469.85C905.63,2399.04 872.702,2327.11 871.367,2324.08L870.005,2321L870.005,2317.62C870.005,2291.95 871.672,2266.26 874.956,2241.25C897.979,2063.2 1014.55,1894.24 1203.19,1765.53C1382,1643.53 1605,1573.55 1815.02,1573.55C2025.02,1573.55 2248,1643.53 2426.8,1765.53C2615.43,1894.24 2731.99,2063.2 2755.01,2241.29C2758.3,2266.56 2759.96,2292.24 2759.96,2317.62L2759.96,2321L2758.6,2324.08C2757.26,2327.11 2724.34,2399.04 2589.59,2469.85C2412.95,2562.69 2152.34,2609.76 1814.98,2609.76Z" style="fill:rgb(0,0,114);fill-rule:nonzero;"/>
        <path d="M1814.98,2553.75C1741.97,2553.75 1674.59,2551.5 1612.38,2547.39L1535.97,2433.77L1557.04,2402.44C1607.23,2404.99 1660.63,2406.35 1717.41,2406.35C1850.76,2406.35 1965.42,2398.81 2063.9,2386.23L2095.87,2433.77L2019.55,2547.26C1956.79,2551.45 1888.77,2553.75 1814.98,2553.75ZM1557.93,2543.21C1409,2530.17 1292.15,2506.16 1200.8,2477.73L1216.91,2453.77L1497.77,2453.77L1557.93,2543.21ZM2072.08,2543.21L2132.24,2453.77L2413.09,2453.77L2429.2,2477.72C2337.85,2506.16 2221.03,2530.16 2072.08,2543.21ZM1160.59,2464.38C1001,2407.87 930.256,2338.88 902.204,2302.64C902.717,2283.38 904.219,2264.19 906.685,2245.42L906.951,2243.39C955.282,2273.84 1022.1,2305.94 1113.76,2333.54L1181.18,2433.77L1160.59,2464.38ZM2470.88,2463.84L2450.66,2433.77L2583.74,2235.91C2605.45,2245.38 2627.92,2253.86 2651.08,2261.31C2651.88,2278.87 2651.19,2318.65 2634.31,2367.71C2631.78,2375.06 2628.81,2382.81 2625.32,2390.9C2586.72,2415.19 2536.29,2440.57 2470.88,2463.84ZM2413.09,2413.77L2132.24,2413.77L2109.44,2379.89C2317.82,2348.39 2447.81,2293.75 2527.55,2243.6L2413.09,2413.77ZM1497.77,2413.77L1216.91,2413.77L1174.07,2350.08C1263.68,2372.39 1373.38,2390.25 1507.38,2399.48L1497.77,2413.77Z" style="fill:rgb(53,107,58);fill-rule:nonzero;"/>
        <path d="M902.204,2302.64C902.716,2283.38 904.217,2264.18 906.687,2245.39C906.773,2244.72 906.86,2244.06 906.949,2243.39L906.951,2243.39L906.685,2245.42C904.219,2264.19 902.717,2283.38 902.204,2302.64Z" style="fill:rgb(0,0,114);fill-rule:nonzero;"/>
        <path d="M1535.97,2433.77L1534.25,2431.22L1553.71,2402.27C1554.83,2402.33 1555.92,2402.39 1557.04,2402.44L1535.97,2433.77ZM1181.18,2433.77L1113.76,2333.54C1114.17,2333.66 1114.58,2333.78 1114.99,2333.91L1181.67,2433.05L1181.18,2433.77Z" style="fill:rgb(131,139,89);fill-rule:nonzero;"/>
        <path d="M1612.38,2547.39C1611.19,2547.31 1609.97,2547.23 1608.78,2547.15L1532.53,2433.77L1534.25,2431.22L1535.97,2433.77L1612.38,2547.39ZM1161.38,2464.66C1161.13,2464.57 1160.85,2464.47 1160.59,2464.38L1181.18,2433.77L1181.67,2433.05L1182.16,2433.77L1161.38,2464.66ZM1497.77,2453.77L1216.91,2453.77L1230.36,2433.77L1216.91,2413.77L1497.77,2413.77L1484.32,2433.77L1497.77,2453.77Z" style="fill:rgb(131,139,89);fill-rule:nonzero;"/>
        <path d="M2450.66,2433.77L2449.26,2431.69L2581.57,2234.96C2582.29,2235.28 2583.02,2235.59 2583.74,2235.91L2450.66,2433.77ZM2095.87,2433.77L2063.9,2386.23C2064.41,2386.17 2064.87,2386.11 2065.38,2386.04L2096.68,2432.58L2095.87,2433.77Z" style="fill:rgb(131,139,89);fill-rule:nonzero;"/>
        <path d="M2019.55,2547.26L2095.87,2433.77L2096.68,2432.58L2097.48,2433.77L2021.23,2547.14C2020.68,2547.18 2020.1,2547.22 2019.55,2547.26ZM2468.61,2464.65L2447.85,2433.77L2449.26,2431.69L2450.66,2433.77L2470.88,2463.84C2470.12,2464.11 2469.38,2464.38 2468.61,2464.65ZM2413.09,2453.77L2132.24,2453.77L2145.69,2433.77L2132.24,2413.77L2413.09,2413.77L2399.64,2433.77L2413.09,2453.77Z" style="fill:rgb(131,139,89);fill-rule:nonzero;"/>
        <path d="M1608.78,2547.15C1591.42,2545.98 1574.49,2544.66 1557.93,2543.21L1497.77,2453.77L1484.32,2433.77L1497.77,2413.77L1507.38,2399.48C1522.51,2400.53 1537.96,2401.46 1553.71,2402.27L1534.25,2431.22L1532.53,2433.77L1608.78,2547.15ZM2021.23,2547.14L2097.48,2433.77L2096.68,2432.58L2065.38,2386.04C2080.43,2384.11 2095.13,2382.05 2109.44,2379.89L2132.24,2413.77L2145.69,2433.77L2132.24,2453.77L2072.08,2543.21C2055.53,2544.66 2038.59,2545.97 2021.23,2547.14Z" style="fill:rgb(131,139,89);fill-rule:nonzero;"/>
        <path d="M1200.8,2477.73C1187.08,2473.46 1173.98,2469.11 1161.38,2464.66L1182.16,2433.77L1181.67,2433.05L1114.99,2333.91C1133.64,2339.5 1153.32,2344.91 1174.07,2350.08L1216.91,2413.77L1230.36,2433.77L1216.91,2453.77L1200.8,2477.73Z" style="fill:rgb(131,139,89);fill-rule:nonzero;"/>
        <path d="M2429.2,2477.72L2413.09,2453.77L2399.64,2433.77L2413.09,2413.77L2527.55,2243.6C2538.31,2236.84 2548.14,2230.16 2557.14,2223.63C2565.16,2227.54 2573.32,2231.32 2581.57,2234.96L2449.26,2431.69L2447.85,2433.77L2468.61,2464.65C2456.05,2469.09 2442.89,2473.46 2429.2,2477.72Z" style="fill:rgb(131,139,89);fill-rule:nonzero;"/>
        <path d="M902.204,2302.64C893.76,2291.73 889.191,2283.8 887.224,2280.06C888.027,2267.74 889.224,2255.49 890.821,2243.34C891.253,2240.13 891.682,2236.96 892.152,2233.75C896.878,2236.94 901.813,2240.16 906.949,2243.39C906.86,2244.06 906.773,2244.72 906.687,2245.39C904.217,2264.18 902.716,2283.38 902.204,2302.64Z" style="fill:rgb(0,0,114);fill-rule:nonzero;"/>
        <path d="M3509.18,1792.02C3509.18,1868.81 3486.83,1941.49 3446.98,2006.19C3378.8,2117.03 3259.27,2204.51 3112.89,2249.29C3112.89,2249.29 3058.8,2375 2904.43,2485.18C2711.08,2623.23 2444.97,2606.59 2444.97,2606.59C2696.95,2455.08 2666.15,2249.29 2666.15,2249.29C2459.96,2186.23 2307.08,2038.44 2275.77,1859.97C2271.86,1837.77 2269.86,1815.07 2269.86,1792.02C2269.86,1731.12 2283.91,1672.8 2309.55,1618.98C2294.25,1581.72 2285.72,1540.27 2285.72,1496.63C2285.72,1333.54 2405.01,1201.33 2552.22,1201.33C2636.52,1201.33 2711.71,1244.73 2760.52,1312.48C2802.08,1305.52 2845.29,1301.88 2889.52,1301.88C2933.71,1301.88 2976.88,1305.52 3018.48,1312.48C3067.29,1244.73 3142.48,1201.33 3226.79,1201.33C3373.99,1201.33 3493.29,1333.54 3493.29,1496.63C3493.29,1540.27 3484.75,1581.68 3469.45,1618.94C3495.13,1672.8 3509.18,1731.08 3509.18,1792.02Z" style="fill:rgb(181,233,36);fill-rule:nonzero;"/>
        <path d="M2315.35,1405.62C2349.28,1296.15 2442.64,1217.31 2552.21,1217.31C2628.5,1217.31 2699.69,1255.41 2747.54,1321.84L2753.35,1329.92L2763.17,1328.27C2804.23,1321.37 2846.83,1317.91 2889.47,1317.91C2932.07,1317.91 2974.7,1321.36 3015.83,1328.27L3025.65,1329.92L3031.46,1321.84C3079.31,1255.41 3150.5,1217.31 3226.79,1217.31C3336.36,1217.31 3429.72,1296.14 3463.65,1405.62C3419.34,1310.67 3329.91,1245.77 3226.79,1245.77C3142.48,1245.77 3067.29,1289.18 3018.48,1356.93C2976.88,1349.96 2933.71,1346.32 2889.52,1346.32C2845.29,1346.32 2802.08,1349.96 2760.52,1356.93C2711.71,1289.18 2636.52,1245.77 2552.22,1245.77C2449.09,1245.77 2359.65,1310.67 2315.35,1405.62Z" style="fill:rgb(225,246,167);fill-rule:nonzero;"/>
        <path d="M2538.78,2558.41C2612.72,2493.77 2648.2,2426.54 2665.21,2376.23C2689.96,2303.02 2682.3,2249.16 2681.96,2246.9L2680.47,2236.92L2670.82,2233.96C2484.71,2177.06 2347.96,2050.11 2302.37,1901.11C2387.14,2022.72 2568.21,2201.54 2899.89,2201.54C3129.95,2201.54 3290.95,2126.9 3397.46,2046.96C3329.67,2130.15 3229.41,2196.91 3108.22,2233.96L3101.15,2236.15L3098.21,2242.93C3097.69,2244.15 3043.63,2366.18 2895.14,2472.17C2843.12,2509.3 2785.35,2534.94 2729.02,2552.62C2702.03,2547.19 2674.32,2544.46 2646.53,2544.46C2610.34,2544.46 2574,2549.08 2538.78,2558.41Z" style="fill:rgb(118,152,63);fill-rule:nonzero;"/>
        <path d="M2552.21,1217.31C2414.08,1217.31 2301.7,1342.62 2301.7,1496.64C2301.7,1537.18 2309.33,1576.3 2324.37,1612.91L2327.06,1619.48L2324.01,1625.88C2298.7,1678.96 2285.87,1734.86 2285.87,1792.01C2285.87,1985.96 2440.57,2163.56 2670.82,2233.96L2680.47,2236.92L2681.96,2246.9C2682.3,2249.16 2689.96,2303.02 2665.21,2376.23C2645.35,2434.99 2600.28,2516.83 2498.17,2590.68C2584.07,2587.77 2759.26,2569.16 2895.14,2472.17C3043.63,2366.18 3097.69,2244.15 3098.21,2242.93L3101.15,2236.15L3108.22,2233.96C3338.47,2163.56 3493.17,1985.96 3493.17,1792.01C3493.17,1734.85 3480.33,1678.94 3454.99,1625.84L3451.94,1619.43L3454.63,1612.87C3469.67,1576.26 3477.3,1537.15 3477.3,1496.64C3477.3,1342.62 3364.92,1217.31 3226.79,1217.31C3150.5,1217.31 3079.31,1255.41 3031.46,1321.84L3025.65,1329.92L3015.83,1328.27C2933.53,1314.45 2845.25,1314.47 2763.17,1328.27L2753.35,1329.92L2747.54,1321.84C2699.69,1255.41 2628.5,1217.31 2552.21,1217.31ZM2474.8,2623.32C2457.04,2623.32 2446.06,2622.7 2443.98,2622.57L2392.7,2619.37L2436.73,2592.89C2561.88,2517.63 2613.25,2428.89 2634.31,2367.71C2651.19,2318.65 2651.88,2278.87 2651.08,2261.31C2537.32,2224.71 2439.98,2163.12 2369.07,2082.78C2293.71,1997.39 2253.87,1896.85 2253.87,1792.01C2253.87,1732.34 2266.74,1674 2292.14,1618.49C2277.25,1579.92 2269.7,1538.96 2269.7,1496.64C2269.7,1324.97 2396.43,1185.31 2552.21,1185.31C2635.78,1185.31 2713.74,1225.21 2767.55,1295.15C2847.09,1282.84 2931.72,1282.82 3011.45,1295.15C3065.26,1225.21 3143.22,1185.31 3226.79,1185.31C3382.57,1185.31 3509.3,1324.97 3509.3,1496.64C3509.3,1538.93 3501.75,1579.87 3486.86,1618.44C3512.29,1673.97 3525.18,1732.33 3525.18,1792.01C3525.18,1896.85 3485.34,1997.39 3409.98,2082.78C3338.32,2163.95 3239.7,2225.98 3124.42,2262.44C3110.62,2290.81 3051.25,2400.05 2913.73,2498.22C2754.79,2611.67 2551.54,2623.32 2474.8,2623.32Z" style="fill:rgb(0,0,114);fill-rule:nonzero;"/>
        <path d="M2758.49,1763.23C2764.25,1778.46 2770.74,1790.99 2779.36,1801.2C2787.87,1811.43 2797.98,1819.68 2809.47,1826.58C2820.95,1833.43 2833.64,1839.19 2847.21,1843.16C2860.77,1847.1 2875.16,1849.11 2889.52,1848.9C2918.27,1848.59 2946.59,1840.09 2969.46,1826.42C2975.21,1823.01 2980.45,1819.04 2985.45,1814.85C2988.01,1812.79 2989.95,1810.24 2992.4,1808.05C2994.57,1805.67 2996.51,1803.11 2998.78,1800.69C3007.07,1790.49 3013.62,1778.44 3020.54,1763.23L3020.57,1763.17C3021.23,1761.71 3022.95,1761.07 3024.41,1761.73C3025.09,1762.04 3025.6,1762.59 3025.87,1763.23C3032.72,1779.23 3031.85,1798.65 3024.23,1815.46C3022.09,1819.47 3020.04,1823.67 3017.46,1827.47C3014.7,1831.08 3012,1834.91 3008.87,1838.2L3004.1,1843.08C3002.51,1844.73 3000.91,1846.37 2999.09,1847.69C2995.52,1850.38 2992.14,1853.54 2988.32,1855.79C2973.41,1865.72 2956.86,1872.1 2940.13,1875.86C2923.37,1879.69 2906.41,1881.18 2889.52,1881.1C2872.63,1880.81 2855.75,1879.13 2839.03,1875.38C2822.36,1871.63 2805.67,1865.63 2790.81,1855.63C2776.04,1845.76 2762.98,1831.78 2755.69,1814.94C2748.41,1798.15 2747.47,1779.22 2753.16,1763.23C2753.68,1761.76 2755.3,1760.99 2756.77,1761.51C2757.58,1761.8 2758.18,1762.42 2758.47,1763.16L2758.49,1763.23Z" style="fill:rgb(0,0,114);fill-rule:nonzero;"/>
        <path d="M2669.02,1805.52C2669.02,1845.85 2618.87,1878.55 2557,1878.55C2495.13,1878.55 2444.98,1845.85 2444.98,1805.52C2444.98,1765.18 2495.13,1732.48 2557,1732.48C2618.87,1732.48 2669.02,1765.18 2669.02,1805.52Z" style="fill:rgb(253,160,152);fill-rule:nonzero;"/>
        <path d="M3365.98,1805.52C3365.98,1845.85 3315.83,1878.55 3253.96,1878.55C3192.09,1878.55 3141.94,1845.85 3141.94,1805.52C3141.94,1765.18 3192.09,1732.48 3253.96,1732.48C3315.83,1732.48 3365.98,1765.18 3365.98,1805.52Z" style="fill:rgb(253,160,152);fill-rule:nonzero;"/>
        <path d="M2415.68,2611.34C2415.68,2611.34 2546.4,2644.29 2444.99,2695.82C2362.38,2737.8 2081.23,2740.5 2051.25,2822.7C2040.48,2852.23 2068.66,2940.48 2358.04,2969.62C2687.97,3002.84 3001.43,2930.13 2967.3,2740.46C2960.13,2700.66 2935.09,2665.95 2901.55,2636.27C2785.28,2533.38 2600.32,2515.67 2457.42,2589.72L2415.68,2611.34Z" style="fill:rgb(181,233,36);fill-rule:nonzero;"/>
        <path d="M2060.24,2807.55C2073.93,2791.29 2098.81,2778.67 2129.81,2768.31L2129.85,2768.31C2098.84,2778.66 2073.94,2791.29 2060.24,2807.55Z" style="fill:rgb(167,234,255);fill-rule:nonzero;"/>
        <path d="M2129.81,2768.31C2205.68,2742.97 2318.1,2731.26 2392.11,2713.4C2318.1,2731.26 2205.72,2742.97 2129.85,2768.31L2129.81,2768.31Z" style="fill:rgb(153,153,199);fill-rule:nonzero;"/>
        <path d="M2966.39,2735.87C2966.39,2735.86 2966.39,2735.86 2966.38,2735.86C2965.75,2732.95 2965.03,2730.07 2964.21,2727.22C2965.03,2730.08 2965.76,2732.96 2966.39,2735.87Z" style="fill:rgb(167,234,255);fill-rule:nonzero;"/>
        <path d="M2481.67,2657.57C2482.2,2655.61 2482.53,2653.6 2482.64,2651.57C2483.2,2653.31 2483.51,2655.11 2483.54,2656.95C2482.91,2657.16 2482.31,2657.36 2481.67,2657.57Z" style="fill:rgb(215,217,211);fill-rule:nonzero;"/>
        <path d="M2445.29,2695.67C2455.96,2690.15 2476.84,2675.63 2481.67,2657.57C2482.31,2657.36 2482.91,2657.16 2483.54,2656.95C2483.74,2668.17 2473.67,2681.19 2445.29,2695.67Z" style="fill:rgb(153,153,199);fill-rule:nonzero;"/>
        <path d="M2462.42,2630.3C2459.23,2628.34 2455.86,2626.52 2452.45,2624.85C2455.86,2626.52 2459.24,2628.34 2462.44,2630.3L2462.42,2630.3Z" style="fill:rgb(247,251,218);fill-rule:nonzero;"/>
        <path d="M2464.66,2631.72C2463.93,2631.24 2463.18,2630.77 2462.42,2630.3L2462.44,2630.3C2463.19,2630.76 2463.94,2631.23 2464.68,2631.71L2464.66,2631.72Z" style="fill:rgb(215,217,211);fill-rule:nonzero;"/>
        <path d="M2877.32,2616.76C2877.3,2616.75 2877.3,2616.75 2877.29,2616.74C2877.3,2616.75 2877.31,2616.76 2877.32,2616.76ZM2876.89,2616.45C2876.83,2616.41 2876.76,2616.35 2876.7,2616.31C2876.76,2616.35 2876.83,2616.41 2876.89,2616.45ZM2876.46,2616.13C2876.37,2616.07 2876.3,2616.02 2876.21,2615.96C2876.29,2616.01 2876.38,2616.08 2876.46,2616.13ZM2876.03,2615.82C2875.9,2615.73 2875.76,2615.63 2875.63,2615.54C2875.77,2615.64 2875.89,2615.72 2876.03,2615.82ZM2875.59,2615.51C2863.58,2606.83 2851.03,2598.95 2838,2591.85C2851.03,2598.95 2863.58,2606.83 2875.59,2615.51Z" style="fill:rgb(167,234,255);fill-rule:nonzero;"/>
        <path d="M2415.71,2611.33L2415.7,2611.33L2443.89,2596.73L2415.71,2611.33Z" style="fill:rgb(153,153,199);fill-rule:nonzero;"/>
        <path d="M2050.15,2841.83L2050.15,2841.81L2050.15,2841.83ZM2050.14,2841.78C2048.75,2834.14 2049.46,2827.59 2051.27,2822.68C2053.23,2817.31 2056.26,2812.27 2060.24,2807.55C2073.94,2791.29 2098.84,2778.66 2129.85,2768.31C2205.72,2742.97 2318.1,2731.26 2392.11,2713.4C2413.57,2708.22 2431.8,2702.52 2444.97,2695.83C2445.08,2695.78 2445.18,2695.72 2445.29,2695.67C2473.67,2681.19 2483.74,2668.17 2483.54,2656.95C2483.51,2655.11 2483.2,2653.31 2482.64,2651.57C2483.05,2644.16 2480.52,2636.3 2473.43,2628.31C2472.86,2628.2 2472.35,2628.11 2471.78,2628L2464.68,2631.71C2463.94,2631.23 2463.19,2630.76 2462.44,2630.3C2459.24,2628.34 2455.86,2626.52 2452.45,2624.85C2434.86,2616.22 2416.25,2611.47 2415.71,2611.33L2443.89,2596.73L2457.42,2589.72C2515.93,2559.4 2581.51,2544.47 2646.52,2544.47C2713.49,2544.47 2779.86,2560.3 2837.33,2591.48C2837.38,2591.51 2837.45,2591.55 2837.5,2591.57C2837.55,2591.6 2837.59,2591.62 2837.64,2591.65C2837.75,2591.71 2837.87,2591.77 2837.97,2591.83C2837.98,2591.84 2837.99,2591.84 2838,2591.85C2851.03,2598.95 2863.58,2606.83 2875.59,2615.51C2875.6,2615.51 2875.62,2615.53 2875.63,2615.54C2875.76,2615.63 2875.9,2615.73 2876.03,2615.82C2876.09,2615.87 2876.15,2615.91 2876.21,2615.96C2876.3,2616.02 2876.37,2616.07 2876.46,2616.13C2876.54,2616.2 2876.61,2616.25 2876.7,2616.31C2876.76,2616.35 2876.83,2616.41 2876.89,2616.45C2877.03,2616.55 2877.15,2616.64 2877.29,2616.74C2877.3,2616.75 2877.3,2616.75 2877.32,2616.76C2885.68,2622.88 2893.76,2629.38 2901.54,2636.26C2908.76,2642.66 2915.59,2649.29 2921.93,2656.15C2922.08,2657.05 2922.28,2657.98 2922.44,2658.88C2923.92,2667.11 2924.74,2675.12 2924.94,2682.91C2922,2680.09 2918.99,2677.31 2915.9,2674.58C2847.27,2613.83 2754.64,2582.76 2660.89,2582.76C2636.59,2582.76 2612.24,2584.84 2588.18,2589.04C2554,2595 2529.49,2623.67 2525.98,2658.19C2523.33,2684.32 2499.87,2715.77 2459.34,2734.11C2384.46,2767.99 2156.23,2776.94 2084.67,2835.88C2072.44,2830.23 2061.95,2824.43 2052.99,2818.61C2052.36,2819.94 2051.78,2821.31 2051.27,2822.68C2049.47,2827.6 2048.75,2834.15 2050.14,2841.78ZM2966.38,2735.86C2966.38,2735.85 2966.38,2735.84 2966.37,2735.84C2960.43,2708.46 2946.04,2683.57 2926.36,2661.08C2943.97,2681.18 2957.33,2703.22 2964.21,2727.22C2965.03,2730.07 2965.75,2732.95 2966.38,2735.86Z" style="fill:rgb(225,246,167);fill-rule:nonzero;"/>
        <path d="M2201.48,2942.76C2105.45,2916.93 2066.9,2882.15 2054.44,2855.09C2066.9,2882.15 2105.44,2916.93 2201.48,2942.76ZM2054.43,2855.07L2054.42,2855.07L2054.43,2855.07Z" style="fill:rgb(23,132,206);fill-rule:nonzero;"/>
        <path d="M2509.56,2977.39C2460.28,2977.39 2409.37,2974.78 2358.04,2969.61C2293.78,2963.14 2242.42,2953.77 2201.48,2942.76C2105.44,2916.93 2066.9,2882.15 2054.44,2855.09C2054.43,2855.09 2054.43,2855.08 2054.43,2855.07L2054.42,2855.07C2052.28,2850.4 2050.91,2845.96 2050.15,2841.83C2051.7,2850.24 2055.8,2859.97 2063.83,2870.27C2063.99,2866.75 2064.62,2863.66 2065.59,2861C2068.98,2851.71 2075.55,2843.39 2084.67,2835.88C2131.4,2857.48 2203.56,2877 2313.19,2888.04C2364.5,2893.21 2415.44,2895.82 2464.71,2895.82C2718.48,2895.82 2928.61,2826.74 2924.94,2682.91C2941.84,2699.13 2956.14,2716.78 2966.37,2735.84C2966.71,2737.37 2967.01,2738.9 2967.29,2740.45C2996.11,2900.61 2777.06,2977.39 2509.56,2977.39ZM2050.15,2841.81C2050.14,2841.8 2050.14,2841.79 2050.14,2841.78C2050.14,2841.79 2050.14,2841.8 2050.15,2841.81ZM2926.36,2661.08C2924.91,2659.42 2923.43,2657.78 2921.93,2656.15L2921.93,2656.14C2923.43,2657.77 2924.91,2659.42 2926.36,2661.08Z" style="fill:rgb(118,152,63);fill-rule:nonzero;"/>
        <path d="M2063.83,2870.27C2055.8,2859.97 2051.7,2850.24 2050.15,2841.83L2050.15,2841.81C2050.14,2841.8 2050.14,2841.79 2050.14,2841.78C2048.75,2834.15 2049.47,2827.6 2051.27,2822.68C2051.78,2821.31 2052.36,2819.94 2052.99,2818.61C2061.95,2824.43 2072.44,2830.23 2084.67,2835.88C2075.55,2843.39 2068.98,2851.71 2065.59,2861C2064.62,2863.66 2063.99,2866.75 2063.83,2870.27ZM2966.37,2735.84C2956.14,2716.78 2941.84,2699.13 2924.94,2682.91C2924.74,2675.12 2923.92,2667.11 2922.44,2658.88C2922.28,2657.98 2922.08,2657.05 2921.93,2656.15C2923.43,2657.78 2924.91,2659.42 2926.36,2661.08C2946.04,2683.57 2960.43,2708.46 2966.37,2735.84Z" style="fill:rgb(146,160,149);fill-rule:nonzero;"/>
        <path d="M2455.91,2608.52C2476.28,2617.95 2496.99,2632.55 2499.33,2653.45C2502.79,2684.39 2464.74,2703.73 2452.23,2710.08C2419.14,2726.9 2358.81,2737.38 2294.93,2748.47C2200,2764.96 2081.86,2785.48 2066.28,2828.18C2064.41,2833.31 2065.03,2842.96 2072.38,2854.67C2086.5,2877.17 2142.75,2931.87 2359.65,2953.71C2618.41,2979.76 2838.23,2939.73 2919.67,2851.71C2948.21,2820.86 2958.94,2784.38 2951.55,2743.29C2945.67,2710.62 2925.28,2678.64 2890.94,2648.25C2781.45,2551.36 2602.22,2532.71 2464.78,2603.92L2455.91,2608.52ZM2509.85,2993.45C2460.29,2993.45 2408.85,2990.82 2356.44,2985.54C2144.94,2964.25 2070.49,2911.87 2045.27,2871.67C2033.65,2853.15 2030.35,2833.31 2036.22,2817.22C2058.14,2757.12 2175.73,2736.69 2289.45,2716.94C2350.9,2706.27 2408.93,2696.19 2437.74,2681.56C2462.99,2668.73 2467.8,2659.49 2467.53,2657.02C2466.58,2648.54 2439.48,2633.89 2411.76,2626.86L2370.96,2616.5L2450.06,2575.51C2601.2,2497.2 2791.21,2517.27 2912.15,2624.29C2952.01,2659.56 2975.86,2697.69 2983.04,2737.63C2992.31,2789.13 2978.89,2834.82 2943.15,2873.45C2897.7,2922.57 2815.65,2958.65 2705.87,2977.78C2646.05,2988.21 2579.82,2993.45 2509.85,2993.45Z" style="fill:rgb(0,0,114);fill-rule:nonzero;"/>
        <path d="M2416.85,1528.99C2423.67,1628.14 2492.85,1694.53 2571.36,1677.27C2649.86,1660.02 2707.97,1565.65 2701.14,1466.5C2694.31,1367.35 2625.14,1300.96 2546.63,1318.21C2468.13,1335.47 2410.02,1429.84 2416.85,1528.99Z" style="fill:rgb(0,0,114);fill-rule:nonzero;"/>
        <path d="M2479.05,1449.38C2473.72,1483.84 2486.34,1513.34 2507.25,1515.27C2528.15,1517.21 2549.42,1490.84 2554.75,1456.38C2560.09,1421.92 2547.46,1392.41 2526.56,1390.48C2505.66,1388.55 2484.39,1414.92 2479.05,1449.38Z" style="fill:white;fill-rule:nonzero;"/>
        <path d="M2598.31,1556.74C2596.54,1574.1 2603.58,1588.67 2614.03,1589.28C2624.49,1589.89 2634.41,1576.3 2636.18,1558.94C2637.95,1541.58 2630.91,1527.01 2620.46,1526.4C2610,1525.79 2600.08,1539.37 2598.31,1556.74Z" style="fill:white;fill-rule:nonzero;"/>
        <path d="M3067.92,1528.99C3074.74,1628.14 3143.92,1694.53 3222.43,1677.27C3300.93,1660.02 3359.04,1565.65 3352.21,1466.5C3345.38,1367.35 3276.21,1300.96 3197.7,1318.21C3119.2,1335.47 3061.09,1429.84 3067.92,1528.99Z" style="fill:rgb(0,0,114);fill-rule:nonzero;"/>
        <path d="M3130.12,1449.38C3124.79,1483.84 3137.41,1513.34 3158.32,1515.27C3179.22,1517.21 3200.49,1490.84 3205.82,1456.38C3211.16,1421.92 3198.53,1392.41 3177.63,1390.48C3156.73,1388.55 3135.46,1414.92 3130.12,1449.38Z" style="fill:white;fill-rule:nonzero;"/>
        <path d="M3249.38,1556.74C3247.61,1574.1 3254.64,1588.67 3265.1,1589.28C3275.56,1589.89 3285.47,1576.3 3287.25,1558.94C3289.02,1541.58 3281.98,1527.01 3271.53,1526.4C3261.07,1525.79 3251.15,1539.37 3249.38,1556.74Z" style="fill:white;fill-rule:nonzero;"/>
    </g>
</svg>
